#tb 0: 1/50
#media_type 0: video
#codec_id 0: rawvideo
#dimensions 0: 416x240
#sar 0: 0/1
0,          0,          0,        1,   299520, 0x8dc7a17a
0,          1,          1,        1,   299520, 0xd7fc6adb
0,          2,          2,        1,   299520, 0x7024bbee
0,          3,          3,        1,   299520, 0x1cbb47e1
0,          4,          4,        1,   299520, 0xd20cceab
0,          5,          5,        1,   299520, 0x23211b88
0,          6,          6,        1,   299520, 0xd3e27e41
0,          7,          7,        1,   299520, 0xaa3cf181
0,          8,          8,        1,   299520, 0x84a487e3
0,          9,          9,        1,   299520, 0xecd725e3
0,         10,         10,        1,   299520, 0x547aef43
0,         11,         11,        1,   299520, 0xd4659b26
0,         12,         12,        1,   299520, 0xc69ffcb1
0,         13,         13,        1,   299520, 0xed8108c9
0,         14,         14,        1,   299520, 0x9da97a62
0,         15,         15,        1,   299520, 0xdbc68178
0,         16,         16,        1,   299520, 0x5e493f7d
0,         17,         17,        1,   299520, 0x5504b03a
0,         18,         18,        1,   299520, 0xbf815bb0
0,         19,         19,        1,   299520, 0xd60a4b41
0,         20,         20,        1,   299520, 0x2245ba52
0,         21,         21,        1,   299520, 0x8b52804b
0,         22,         22,        1,   299520, 0x140fed8b
0,         23,         23,        1,   299520, 0x1570ad4a
0,         24,         24,        1,   299520, 0x51fa7185
0,         25,         25,        1,   299520, 0x66d564b6
0,         26,         26,        1,   299520, 0xa252f541
0,         27,         27,        1,   299520, 0xaf3fe3f7
0,         28,         28,        1,   299520, 0xe34388dd
0,         29,         29,        1,   299520, 0x3a103e94
0,         30,         30,        1,   299520, 0x90e7b4a9
0,         31,         31,        1,   299520, 0xc4340410
0,         32,         32,        1,   299520, 0x1927bbb8
0,         33,         33,        1,   299520, 0x9a5b1f4a
0,         34,         34,        1,   299520, 0x91860ded
0,         35,         35,        1,   299520, 0x837dcc7c
0,         36,         36,        1,   299520, 0x843c5518
0,         37,         37,        1,   299520, 0x007cc690
0,         38,         38,        1,   299520, 0x5ed45b81
0,         39,         39,        1,   299520, 0x62f8a25d
0,         40,         40,        1,   299520, 0xc2b611e3
0,         41,         41,        1,   299520, 0x9f109a83
0,         42,         42,        1,   299520, 0xa3756fae
0,         43,         43,        1,   299520, 0x9bca8463
0,         44,         44,        1,   299520, 0xdfc7c2fd
0,         45,         45,        1,   299520, 0xdae118a5
0,         46,         46,        1,   299520, 0x55233050
0,         47,         47,        1,   299520, 0x8f9cbbbd
0,         48,         48,        1,   299520, 0xc2798528
0,         49,         49,        1,   299520, 0x1aa0e34f
0,         50,         50,        1,   299520, 0xc8d50134
0,         51,         51,        1,   299520, 0x54215ab3
0,         52,         52,        1,   299520, 0xab6fcd59
0,         53,         53,        1,   299520, 0xe4f988de
0,         54,         54,        1,   299520, 0x8b9d42d6
0,         55,         55,        1,   299520, 0xb66a6b52
0,         56,         56,        1,   299520, 0xdc7a2e09
0,         57,         57,        1,   299520, 0x5167b8f3
0,         58,         58,        1,   299520, 0x057d5469
0,         59,         59,        1,   299520, 0x04010ea4
